<?xml version="1.0" encoding="UTF-8" standalone="no"?>
<svg
   version="1.0"
   width="1000.000000pt"
   height="1000.000000pt"
   viewBox="0 0 1000.000000 1000.000000"
   preserveAspectRatio="xMidYMid meet"
   id="svg128"
   sodipodi:docname="icon.svg"
   inkscape:version="1.1.2 (0a00cf5339, 2022-02-04)"
   xmlns:inkscape="http://www.inkscape.org/namespaces/inkscape"
   xmlns:sodipodi="http://sodipodi.sourceforge.net/DTD/sodipodi-0.dtd"
   xmlns="http://www.w3.org/2000/svg"
   xmlns:svg="http://www.w3.org/2000/svg">
  <defs
     id="defs132" />
  <sodipodi:namedview
     id="namedview130"
     pagecolor="#ffffff"
     bordercolor="#666666"
     borderopacity="1.0"
     inkscape:pageshadow="2"
     inkscape:pageopacity="0.0"
     inkscape:pagecheckerboard="0"
     inkscape:document-units="pt"
     showgrid="false"
     inkscape:zoom="0.53925"
     inkscape:cx="35.234121"
     inkscape:cy="955.03013"
     inkscape:window-width="2550"
     inkscape:window-height="1415"
     inkscape:window-x="3195"
     inkscape:window-y="0"
     inkscape:window-maximized="0"
     inkscape:current-layer="svg128" />
  <path
     d="m 83.9,149.9 c -9.5,4 -16.8,9.2 -24.6,17.4 -6.5,6.9 -14,18.7 -12.6,20.1 0.3,0.3 0.2,0.6 -0.4,0.6 -0.6,0 -1.1,0.6 -1,1.2 0,0.7 -0.2,130.2 -0.4,287.8 -0.2,157.6 -0.6,276.8 -0.9,265 l -0.6,-21.5 -0.2,24.3 c -0.1,18.2 0.1,24.1 1,23.6 0.7,-0.4 0.8,-0.3 0.4,0.5 -1.1,1.7 4.3,12.6 9.9,19.9 2.6,3.5 7.4,8.5 10.5,11.2 13.3,11 24.6,15.2 47,17.4 42.7,4.2 106.7,9.8 127.8,11.1 73.6,4.5 92.8,5.6 123.7,6.5 18.7,0.6 47.1,1.5 63,2 37.3,1.3 113,1.3 149.5,0 15.7,-0.5 43.8,-1.4 62.5,-2 30.9,-0.9 50.3,-2 124,-6.5 13.2,-0.8 50.6,-3.9 83.2,-6.9 55.5,-5.1 59.7,-5.7 67.8,-8.4 19.3,-6.7 33.6,-19.5 42.5,-38.3 l 3,-6.4 -0.5,-40.5 c -0.3,-22.3 -0.7,-53.6 -1,-69.5 -0.3,-16 -0.5,-128.6 -0.5,-250.3 0,-134.8 -0.4,-221.1 -1,-220.7 -0.5,0.3 -0.8,-0.3 -0.7,-1.3 0.3,-5 -13.6,-22.2 -23.7,-29.1 -5,-3.5 -15.5,-8.6 -19.6,-9.5 -1.8,-0.4 -1.6,-0.2 0.8,0.9 1.7,0.8 3.2,1.6 3.2,1.8 0,0.2 -3,-0.5 -6.7,-1.4 -6.4,-1.7 -28.2,-1.8 -408.3,-1.8 -379.6,0 -401.9,0.1 -408.2,1.8 -6.9,1.8 -8.1,1.5 -2.5,-0.6 1.8,-0.6 2.5,-1.2 1.7,-1.2 -0.8,0 -4.5,1.2 -8.1,2.8 z M 832,149.6 c 3,0.4 5.7,0.8 5.9,1 0.2,0.2 -164.9,0.4 -367,0.4 -403.6,0 -372.6,-0.5 -386.4,6.1 -7.7,3.6 -17.4,11.1 -22.8,17.6 -3.8,4.6 -10.7,16.2 -10.7,17.9 0,0.5 1.3,-1.4 2.8,-4.1 10.7,-19.3 26.8,-31.6 45.9,-35 6.6,-1.2 70.9,-1.4 401.5,-1.5 438.9,0 402,-0.6 417.8,7.1 10.8,5.3 22.8,16.9 28,27.1 1.9,3.7 3.6,6.5 3.8,6.3 0.6,-0.6 -4,-8.9 -8.4,-15.2 -7,-9.8 -18.4,-18.3 -30.8,-22.9 -7.5,-2.8 -6.1,-3.1 1.9,-0.4 15.4,5.3 29.7,18.3 37.1,33.8 l 2.8,5.7 -0.1,287.3 -0.1,287.4 -3.1,6.1 c -5.4,11.1 -21.1,27.7 -24.7,26.3 -0.8,-0.3 -1.3,0 -1.1,0.7 0.1,0.7 -0.6,1.1 -1.5,1.1 -1,-0.1 -1.5,0.3 -1.1,0.9 0.4,0.6 0,0.8 -1.1,0.4 -0.9,-0.4 -1.5,-0.3 -1.2,0.2 0.6,0.9 -4.4,3.5 -5.2,2.6 -0.3,-0.3 0.1,-0.5 0.8,-0.5 0.7,0 1.1,-0.2 0.8,-0.5 -0.8,-0.8 -3.9,0.6 -3.3,1.5 0.2,0.4 -0.8,0.5 -2.3,0.3 -2.2,-0.4 -2.4,-0.2 -1.2,0.7 1.2,0.8 0.9,0.9 -1.4,0.4 -1.9,-0.5 -2.7,-0.3 -2.2,0.4 0.3,0.6 -0.1,0.9 -1.1,0.6 -1,-0.2 -12.4,0.7 -25.3,2 -12.9,1.2 -22.1,2.5 -20.5,2.8 1.7,0.3 -0.6,0.4 -5,0.2 -5.7,-0.2 -7.1,-0.1 -5,0.5 2.1,0.6 0.4,0.8 -5.5,0.6 -6.1,-0.3 -7.5,-0.2 -5,0.4 2.5,0.6 0.7,0.8 -6,0.6 -7,-0.3 -8.5,-0.2 -5.5,0.5 3,0.6 1.8,0.7 -5,0.5 -6.8,-0.3 -8,-0.1 -5,0.5 3,0.6 1.8,0.8 -5,0.5 -5.1,-0.2 -7.3,0 -5,0.3 5.4,0.9 -11.4,2.4 -78.5,6.7 -149.5,9.7 -302.9,9.7 -454.4,0 -59.9,-3.8 -114.3,-8.6 -110.5,-9.6 1.3,-0.4 -1.2,-0.5 -5.6,-0.4 -6,0.3 -7.1,0.2 -4.5,-0.5 2.6,-0.6 1.2,-0.7 -5,-0.5 -6.3,0.3 -7.6,0.2 -5,-0.5 2.5,-0.6 1,-0.8 -5.5,-0.5 -6.2,0.3 -8.2,0.1 -6.5,-0.5 1.8,-0.7 0.3,-0.8 -5,-0.5 -5.4,0.3 -6.8,0.2 -5,-0.5 1.8,-0.7 0.5,-0.9 -5,-0.6 -5.2,0.3 -6.7,0.2 -5,-0.5 1.8,-0.6 0.5,-0.8 -4.4,-0.5 -4.7,0.3 -6.4,0.1 -5.5,-0.6 1,-0.7 0.5,-0.8 -1.6,-0.4 -3.4,0.5 -10.7,-1.3 -9.9,-2.5 0.3,-0.5 -0.1,-0.6 -0.9,-0.3 -1.9,0.7 -12,-4.3 -11.2,-5.6 0.3,-0.5 0,-1.2 -0.6,-1.6 -0.8,-0.4 -0.9,-0.3 -0.5,0.4 1.4,2.3 -1,1.1 -6.6,-3.3 -7.4,-5.8 -13.2,-13.2 -17.5,-22.2 l -3.4,-7.1 -0.2,-287.9 -0.2,-287.8 4,-6.9 c 9.3,-16.1 24.2,-27.9 42,-33.2 5.3,-1.5 12.2,-1.9 56,-2.4 59.2,-0.8 673.5,-0.2 681.5,0.6 z m 66.3,1.1 c -0.7,0.2 -1.9,0.2 -2.5,0 -0.7,-0.3 -0.2,-0.5 1.2,-0.5 1.4,0 1.9,0.2 1.3,0.5 z m 6.4,0.9 c -0.3,0.3 -1.2,0.4 -1.9,0.1 -0.8,-0.3 -0.5,-0.6 0.6,-0.6 1.1,-0.1 1.7,0.2 1.3,0.5 z"
     id="path2"
     style="fill:#000000;stroke:#000000;stroke-width:30;fill-opacity:1;stroke-opacity:1;stroke-miterlimit:4;stroke-dasharray:none" />
  <path
     d="m 170.72152,236.08165 c -7.5605,2.68348 -13.37024,6.17201 -19.57782,11.67316 -5.17298,4.629 -11.14184,12.54527 -10.02763,13.48449 0.23872,0.20127 0.15911,0.40253 -0.31833,0.40253 -0.47755,0 -0.87548,0.40252 -0.79588,0.80504 0,0.46962 -0.15921,87.34738 -0.31833,193.0766 -0.15921,105.72923 -0.47754,185.69702 -0.71626,177.78075 l -0.47755,-14.42372 -0.15911,16.30216 c -0.0801,12.20984 0.0791,16.16798 0.79577,15.83254 0.55715,-0.26834 0.63676,-0.20126 0.31833,0.33544 -0.87538,1.14048 3.42222,8.45297 7.87893,13.35033 2.0692,2.34804 5.88925,5.7024 8.35638,7.51375 10.58478,7.37958 19.57782,10.19723 37.40478,11.67315 33.98265,2.81766 84.91679,6.57453 101.70915,7.44667 58.57434,3.01891 73.85456,3.75687 98.44625,4.36066 14.88228,0.40252 37.48438,1.0063 50.13835,1.34173 29.68506,0.87214 89.93066,0.87214 118.97902,0 12.49479,-0.33543 34.85808,-0.93921 49.7404,-1.34173 24.59167,-0.60379 40.03108,-1.34175 98.68497,-4.36066 10.50517,-0.5367 40.26983,-2.6164 66.21443,-4.62901 44.16947,-3.42144 47.51203,-3.82397 53.95839,-5.63532 15.35984,-4.49483 26.74043,-13.08198 33.82347,-25.69435 l 2.38754,-4.29357 -0.39792,-27.17026 c -0.23875,-14.96042 -0.55709,-35.95868 -0.79585,-46.62552 -0.23875,-10.73393 -0.39792,-86.27398 -0.39792,-167.91894 0,-90.43338 -0.31834,-148.32953 -0.79585,-148.06118 -0.39792,0.20126 -0.63668,-0.20126 -0.55709,-0.87213 0.23875,-3.35436 -10.82352,-14.89333 -18.86156,-19.52234 -3.97923,-2.34805 -12.33562,-5.76949 -15.59859,-6.37327 -1.43252,-0.26835 -1.27336,-0.13418 0.63668,0.60378 1.35293,0.5367 2.5467,1.0734 2.5467,1.20757 0,0.13418 -2.38754,-0.33543 -5.33217,-0.93922 -5.09341,-1.14048 -22.44287,-1.20757 -324.94414,-1.20757 -302.10327,0 -319.85072,0.0671 -324.86448,1.20757 -5.49131,1.20757 -6.4464,1.00631 -1.98959,-0.40252 1.43243,-0.40252 1.98959,-0.80505 1.35293,-0.80505 -0.63676,0 -3.58134,0.80505 -6.4464,1.87844 z m 595.37275,-0.20126 c 2.38753,0.26835 4.53632,0.5367 4.69549,0.67088 0.15917,0.13417 -131.23508,0.26834 -292.07562,0.26834 -321.20365,0 -296.53246,-0.33543 -307.51508,4.09231 -6.12807,2.41514 -13.84778,7.44667 -18.14528,11.80732 -3.02429,3.08602 -8.5156,10.86811 -8.5156,12.00859 0,0.33544 1.0346,-0.93922 2.22841,-2.75057 8.51549,-12.94781 21.32868,-21.19951 36.5293,-23.48047 5.25258,-0.80505 56.42554,-0.93922 319.53239,-1.00631 349.297,0 319.93026,-0.40252 332.50464,4.76318 8.59513,3.55562 18.14529,11.33772 22.2837,18.1806 1.5121,2.48223 2.86504,4.36066 3.02421,4.22648 0.47751,-0.40252 -3.18339,-5.97074 -6.68511,-10.19723 -5.57093,-6.57453 -14.64357,-12.27693 -24.51207,-15.36294 -5.96885,-1.87844 -4.85466,-2.07969 1.51211,-0.26835 12.25603,3.55562 23.63664,12.27694 29.5259,22.67543 l 2.22837,3.82397 -0.0796,192.74116 -0.0796,192.80825 -2.46713,4.09231 c -4.29757,7.44666 -16.79236,18.58312 -19.65741,17.6439 -0.63668,-0.20126 -1.0346,0 -0.87543,0.46962 0.0796,0.4696 -0.47751,0.73795 -1.19377,0.73795 -0.79585,-0.0671 -1.19377,0.20126 -0.87543,0.60378 0.31834,0.40252 0,0.5367 -0.87544,0.26835 -0.71625,-0.26835 -1.19377,-0.20126 -0.95501,0.13417 0.47751,0.60379 -3.50172,2.34805 -4.1384,1.74427 -0.23875,-0.20126 0.0796,-0.33543 0.63668,-0.33543 0.55709,0 0.87543,-0.13418 0.63667,-0.33544 -0.63667,-0.5367 -3.1038,0.40252 -2.62629,1.00631 0.15917,0.26834 -0.63667,0.33543 -1.83044,0.20126 -1.75087,-0.26835 -1.91004,-0.13418 -0.95502,0.4696 0.95502,0.5367 0.71626,0.60379 -1.11419,0.26835 -1.51211,-0.33544 -2.14879,-0.20126 -1.75086,0.26835 0.23875,0.40252 -0.0796,0.60378 -0.87543,0.40252 -0.79584,-0.13417 -9.8685,0.46961 -20.13492,1.34175 -10.26642,0.80504 -17.58821,1.67717 -16.31485,1.87843 1.35294,0.20126 -0.47751,0.26835 -3.97923,0.13418 -4.53633,-0.13418 -5.65051,-0.0671 -3.97924,0.33543 1.67129,0.40253 0.31834,0.5367 -4.37715,0.40253 -4.85467,-0.20127 -5.96885,-0.13418 -3.97923,0.26834 1.98961,0.40253 0.55709,0.5367 -4.77508,0.40253 -5.57093,-0.20126 -6.7647,-0.13418 -4.37715,0.33543 2.38754,0.40253 1.43252,0.46961 -3.97923,0.33544 -5.41177,-0.20126 -6.36679,-0.0671 -3.97924,0.33544 2.38754,0.40252 1.43252,0.53669 -3.97923,0.33543 -4.05882,-0.13417 -5.80968,0 -3.97923,0.20126 4.29757,0.60378 -9.07266,1.61009 -62.47396,4.49483 -118.97905,6.50745 -241.06183,6.50745 -361.63253,0 -47.67123,-2.54931 -90.96526,-5.76948 -87.94108,-6.44036 1.0346,-0.26834 -0.95498,-0.33543 -4.45671,-0.26834 -4.77514,0.20126 -5.65052,0.13417 -3.58133,-0.33544 2.06919,-0.40252 0.95499,-0.46961 -3.97927,-0.33544 -5.01377,0.20126 -6.04836,0.13418 -3.97917,-0.33543 1.98958,-0.40253 0.79577,-0.5367 -4.37721,-0.33544 -4.93426,0.20126 -6.5259,0.0671 -5.17298,-0.33543 1.43253,-0.46961 0.23872,-0.53669 -3.97927,-0.33543 -4.2975,0.20126 -5.4117,0.13417 -3.97917,-0.33544 1.43253,-0.46961 0.39794,-0.60378 -3.97927,-0.40252 -4.13838,0.20126 -5.33219,0.13417 -3.97927,-0.33544 1.43253,-0.40252 0.39794,-0.5367 -3.50172,-0.33543 -3.74045,0.20126 -5.09338,0.0671 -4.37711,-0.40253 0.79587,-0.46961 0.39794,-0.5367 -1.27332,-0.26835 -2.70595,0.33544 -8.51559,-0.87213 -7.87893,-1.67717 0.23872,-0.33543 -0.0801,-0.40252 -0.71627,-0.20126 -1.51214,0.46961 -9.55018,-2.88475 -8.91343,-3.75688 0.23873,-0.33543 0,-0.80504 -0.47754,-1.07339 -0.63666,-0.26835 -0.71627,-0.20126 -0.39794,0.26835 1.11421,1.543 -0.79587,0.73796 -5.25259,-2.21388 -5.88924,-3.89105 -10.50517,-8.85549 -13.92729,-14.89333 l -2.70585,-4.76318 -0.15922,-193.14369 -0.15911,-193.0766 3.1833,-4.629 c 7.40138,-10.80102 19.25949,-18.71729 33.4256,-22.27291 4.21799,-1.00631 9.7093,-1.27465 44.56744,-1.61009 47.11408,-0.5367 536.00251,-0.13417 542.36928,0.40252 z m 52.76462,0.73796 c -0.5571,0.13418 -1.51211,0.13418 -1.98962,0 -0.55709,-0.20126 -0.15916,-0.33543 0.95502,-0.33543 1.11418,0 1.51211,0.13417 1.0346,0.33543 z m 5.09342,0.60378 c -0.23875,0.20126 -0.95502,0.26835 -1.51211,0.0671 -0.63668,-0.20126 -0.39793,-0.40253 0.4775,-0.40253 0.87543,-0.0671 1.35295,0.13418 1.03461,0.33544 z"
     id="path2-6"
     style="fill:#000000;fill-opacity:1;stroke:#000000;stroke-width:30;stroke-miterlimit:4;stroke-dasharray:none;stroke-opacity:1" />
  <path
     d="m 598.6,737.9 c 4.4,1.1 5.4,1.9 6.9,5.6 4.4,10.4 -9.9,18.4 -16.1,9 -2.3,-3.6 -2,-8.2 0.8,-11.3 2,-2.2 2.1,-2.4 0.3,-1.4 -6.9,3.6 -10.5,14.7 -7.1,22.5 1.7,3.9 7.1,9.2 10.9,10.6 6.8,2.6 14.3,0.6 19.4,-5.2 10.9,-12.4 2.8,-30.9 -13.4,-30.6 -4.3,0.1 -4.5,0.2 -1.7,0.8 z"
     id="path84"
     style="fill:#000000;stroke:none;stroke-width:0.1" />
  <path
     d="m 389.6,739.6 c -0.9,2.3 -0.8,2.4 2.4,2.4 2.3,0 3,-0.4 3,-2 0,-2.5 -4.5,-2.8 -5.4,-0.4 z"
     id="path86"
     style="fill:#000000;stroke:none;stroke-width:0.1" />
  <path
     d="m 398,740 c 0,1.6 0.7,2 3,2 2.3,0 3,-0.4 3,-2 0,-1.6 -0.7,-2 -3,-2 -2.3,0 -3,0.4 -3,2 z"
     id="path88"
     style="fill:#000000;stroke:none;stroke-width:0.1" />
  <path
     d="m 388.2,745 c -5.6,2.4 -6.9,15.8 -2,20.6 2.9,3 10.5,4.1 16.5,2.5 5.7,-1.6 7.7,-5.2 7.1,-13.3 -0.6,-8.4 -2.6,-10.2 -12.1,-10.5 -3.9,-0.2 -8.2,0.2 -9.5,0.7 z m 13.9,5.7 c 2.2,2.5 1.8,10.2 -0.5,11.9 -2.3,1.6 -6.9,1.8 -9.7,0.4 -1.5,-0.9 -1.9,-2.2 -1.9,-6.3 0,-2.9 0.5,-5.8 1.2,-6.5 1.8,-1.8 9.3,-1.5 10.9,0.5 z"
     id="path90"
     style="fill:#000000;stroke:none;stroke-width:0.1" />
  <path
     d="m 415,746 c -2.3,2.3 -2.6,5.8 -0.6,8.5 0.8,1.1 4.5,2.9 8.3,4 9.6,2.9 9.3,4.9 -0.8,5.3 -6.7,0.2 -7.8,0.5 -8.2,2.2 -0.5,1.9 0.1,2 9.9,2 11.2,0 12.4,-0.6 12.4,-6.2 0,-3.9 -2.1,-5.7 -9,-7.7 -4.3,-1.2 -6.6,-2.3 -6.8,-3.4 -0.3,-1.5 0.7,-1.7 7.2,-1.7 7.4,0 7.6,-0.1 7.6,-2.5 0,-2.5 -0.1,-2.5 -9,-2.5 -7.7,0 -9.3,0.3 -11,2 z"
     id="path92"
     style="fill:#000000;stroke:none;stroke-width:0.1" />
  <path
     d="m 439,746.5 c 0,2.3 0.4,2.5 4.5,2.5 h 4.5 v 9.5 9.5 h 3.5 3.5 v -9.5 -9.5 h 4.5 c 4.1,0 4.5,-0.2 4.5,-2.5 V 744 H 451.5 439 Z"
     id="path94"
     style="fill:#000000;stroke:none;stroke-width:0.1" />
  <path
     d="m 468.2,745.2 c -1.4,1.4 -1.7,19.5 -0.4,21.6 0.6,0.9 3.6,1.2 11.3,1 10.2,-0.3 10.4,-0.4 11.3,-2.9 1.1,-3.3 0,-7.9 -1.9,-7.9 -1.9,0 -1.9,-1.6 0,-2.4 2,-0.7 2,-7 -0.1,-9 -1.9,-2 -18.3,-2.3 -20.2,-0.4 z m 16.1,5 c 0.9,2.8 -0.6,3.8 -6,3.8 -4.6,0 -5.4,-0.3 -4.9,-1.6 0.3,-0.9 0.6,-2 0.6,-2.5 0,-1.4 9.8,-1.1 10.3,0.3 z m -0.4,9.6 c 1.4,2.7 -0.5,4.2 -5.4,4.2 -5,0 -5.4,-0.3 -4.7,-3.5 0.4,-2.2 0.9,-2.5 4.8,-2.5 3.2,0 4.6,0.5 5.3,1.8 z"
     id="path96"
     style="fill:#000000;stroke:none;stroke-width:0.1" />
  <path
     d="m 497.2,744.8 c -0.9,0.6 -1.2,3.7 -1,11.8 l 0.3,10.9 10.3,0.3 c 9.7,0.3 10.2,0.2 10.2,-1.8 0,-1.8 -0.6,-2 -7.5,-2 H 502 v -3 -3 h 7.4 c 6.9,0 7.4,-0.1 6.9,-2 -0.5,-1.8 -1.4,-2 -7.4,-2 -6.7,0 -6.9,-0.1 -6.9,-2.5 0,-2.3 0.3,-2.4 7.3,-2.7 6.4,-0.3 7.2,-0.5 7.2,-2.3 0,-1.8 -0.8,-2 -9,-2.3 -4.9,-0.1 -9.6,0.2 -10.3,0.6 z"
     id="path98"
     style="fill:#000000;stroke:none;stroke-width:0.1" />
  <path
     d="m 523.3,744.7 c -0.9,0.3 -1.3,3.7 -1.3,11.9 V 768 h 3 c 2.8,0 3,-0.2 3,-4 0,-3.7 0.2,-4 2.8,-4 1.9,0 4,1.2 6.6,3.9 2.6,2.7 4.9,4 7.2,4.3 1.9,0.2 3.4,0.1 3.4,-0.2 0,-0.3 -1.5,-2.1 -3.4,-3.9 l -3.5,-3.4 2.2,-1.7 c 1.7,-1.4 2.2,-2.9 2.2,-6.5 0,-7 -2.4,-8.5 -12.9,-8.4 -4.4,0 -8.7,0.3 -9.3,0.6 z m 15.5,7.5 c -0.3,3.2 -0.4,3.3 -5.5,3.6 l -5.3,0.3 v -3.5 -3.6 h 5.6 5.5 z"
     id="path100"
     style="fill:#000000;stroke:none;stroke-width:0.1" />
  <path
     d="m 555,745.3 c -3.3,1.7 -5,5.3 -5,10.9 0,9.8 2.8,12 15,11.6 l 8.5,-0.3 0.3,-6.3 0.3,-6.2 H 569 c -4.3,0 -5,0.3 -5,2 0,1.4 0.7,2 2.1,2 1.5,0 2,0.5 1.7,2.2 -0.2,1.8 -1,2.4 -4,2.6 -5,0.4 -7.8,-2.4 -7.8,-7.7 0,-5.8 1.8,-7.1 10.1,-7.1 6.7,0 6.9,-0.1 6.9,-2.5 0,-2.5 -0.1,-2.5 -7.7,-2.5 -4.3,0 -8.9,0.6 -10.3,1.3 z"
     id="path102"
     style="fill:#000000;stroke:none;stroke-width:0.1" />
  <path
     d="m 747.8,822.7 c 1.2,0.2 3,0.2 4,0 0.9,-0.3 -0.1,-0.5 -2.3,-0.4 -2.2,0 -3,0.2 -1.7,0.4 z"
     id="path122"
     style="fill:#000000;stroke:none;stroke-width:0.1" />
  <path
     d="m 732.3,823.7 c 0.9,0.2 2.5,0.2 3.5,0 0.9,-0.3 0.1,-0.5 -1.8,-0.5 -1.9,0 -2.7,0.2 -1.7,0.5 z"
     id="path124"
     style="fill:#000000;stroke:none;stroke-width:0.1" />
</svg>
