<?xml version="1.0" encoding="UTF-8" standalone="no"?>
<svg
   version="1.0"
   width="100pt"
   height="277pt"
   viewBox="0 0 100 277"
   preserveAspectRatio="xMidYMid meet"
   id="svg44"
   sodipodi:docname="icon.svg"
   inkscape:version="1.1.2 (0a00cf5339, 2022-02-04)"
   xmlns:inkscape="http://www.inkscape.org/namespaces/inkscape"
   xmlns:sodipodi="http://sodipodi.sourceforge.net/DTD/sodipodi-0.dtd"
   xmlns="http://www.w3.org/2000/svg"
   xmlns:svg="http://www.w3.org/2000/svg">
  <defs
     id="defs48" />
  <sodipodi:namedview
     id="namedview46"
     pagecolor="#ffffff"
     bordercolor="#666666"
     borderopacity="1.0"
     inkscape:pageshadow="2"
     inkscape:pageopacity="0.0"
     inkscape:pagecheckerboard="0"
     inkscape:document-units="pt"
     showgrid="false"
     inkscape:zoom="2.5420487"
     inkscape:cx="98.345872"
     inkscape:cy="192.9546"
     inkscape:window-width="2550"
     inkscape:window-height="1385"
     inkscape:window-x="1275"
     inkscape:window-y="25"
     inkscape:window-maximized="0"
     inkscape:current-layer="svg44"
     inkscape:object-nodes="false" />
  <metadata
     id="metadata2">
Created by potrace 1.10, written by Peter Selinger 2001-2011
</metadata>
  <path
     id="path4"
     style="fill:#000000;stroke:#000000;stroke-width:7.5;stroke-miterlimit:4;stroke-dasharray:none;stroke-opacity:1"
     d="m 22.96142,5.527738 c -0.72005,0.188276 -1.4354,0.353604 -2.16211,0.611756 -5.59999,1.998203 -8.49999,4.196134 -10.5,7.892815 -1.69999,2.997309 -1.79922,9.490689 -1.69921,108.102161 0.19999,124.68804 0.50019,135.07968 3.70019,141.37403 4.2,8.29256 5.09922,8.4917 37.69922,8.79143 28.2,0.29973 28.5,0.30022 33,-1.99772 3.3,-1.79839 5.1002,-3.59658 6.7002,-6.79371 2.1,-4.29614 2.1997,-6.09501 2.6997,-39.9646 0.4,-19.48251 0.90117,-45.85882 1.20117,-58.44752 0.3,-12.68861 0.59913,-50.85483 0.59913,-84.924234 0,-55.949777 -0.0992,-62.343246 -1.69923,-66.139837 C 90.80049,9.736166 88.3,7.537457 84,6.338533 c -1.7,-0.399641 -1.39952,-0.09981 1.00048,1.099111 1.8,0.999103 4.29903,3.396755 5.49903,5.295051 2,3.39695 2.00097,4.796182 2.00097,69.937693 -0.1,72.335052 -1.30019,173.145022 -2.20019,176.342152 -0.9,3.29704 -5.20087,8.39256 -8.40088,10.09104 -2.49999,1.19892 -7.59921,1.49826 -28.69922,1.59817 -29.4,0.0999 -32.89951,-0.30022 -36.49951,-3.99689 -3.3,-3.39695 -4.40058,-6.59399 -5.10058,-13.88744 -1.4,-13.98744 -2.30049,-227.595939 -1.00049,-234.090108 1.3,-6.7939 7.0001,-11.989235 13.1001,-11.989235 1.5,0 3.50078,-0.498576 4.30077,-0.998128 0.12736,-0.08298 0.1534,-0.140172 0.23731,-0.212211 z" />
  <path
     d="m 27.5,62.9 c -10.7,0.6 -11,0.7 -11.9,3.2 -0.5,1.5 -0.5,4.2 0,6.5 l 0.9,3.9 0.3,-5.6 0.3,-5.6 9.1,-0.7 C 37.5,63.8 72.6,64 79.9,64.8 l 5.5,0.7 -0.3,6.7 c -0.2,4.6 0.1,6.8 0.9,6.8 0.8,0 1.1,-2.4 0.8,-7.8 L 86.5,63.5 78,62.8 C 68.2,62.1 43.5,62.1 27.5,62.9 Z"
     id="path8"
     style="fill:#000000;stroke:#000000;stroke-width:2.775;stroke-miterlimit:4;stroke-dasharray:none;stroke-opacity:1" />
  <path
     d="m 18.4,80.1 c -0.3,0.6 -0.3,7.6 0.1,15.6 l 0.7,14.5 31.9,-0.4 31.9,-0.3 V 95.8 C 83,88.3 83.3,81.5 83.6,80.6 84.2,79.2 80.9,79 51.7,79 29.2,79 18.9,79.3 18.4,80.1 Z m 62,13 c -0.2,6.7 -0.6,12.4 -0.9,12.9 -0.2,0.4 -10,0.8 -21.7,0.9 -11.7,0.1 -24.8,0.3 -29,0.4 L 21,107.5 V 104 C 20.9,102.1 20.7,96.1 20.4,90.7 L 19.9,81 h 30.5 30.5 z"
     id="path10"
     style="fill:#000000;stroke:#000000;stroke-width:2.775;stroke-miterlimit:4;stroke-dasharray:none;stroke-opacity:1" />
  <path
     d="m 16.7,120.5 c 0.3,6 0.7,11.2 0.9,11.4 0.9,1 0.3,-19.6 -0.6,-20.9 -0.6,-1 -0.8,2.2 -0.3,9.5 z"
     id="path12"
     style="fill:#000000;stroke:#000000;stroke-width:0.75;stroke-miterlimit:4;stroke-dasharray:none;stroke-opacity:1" />
  <path
     d="m 83.6,129 c -0.9,20.9 -1.8,24.3 -8.5,30.3 -2.2,2 -3.7,3.7 -3.1,3.7 1.8,0 8.1,-6.3 10,-10 1.5,-3 2,-6.8 2.5,-19.6 0.3,-8.7 0.8,-16.8 1,-17.9 0.2,-1.1 0,-2.6 -0.4,-3.3 -0.5,-0.8 -1.1,6.7 -1.5,16.8 z"
     id="path14"
     style="fill:#000000;stroke:#000000;stroke-width:0.75;stroke-miterlimit:4;stroke-dasharray:none;stroke-opacity:1" />
  <path
     d="m 23.2,126.2 c -1.7,1.7 -1.5,4.2 0.7,6.9 l 1.8,2.3 6.7,-2.9 c 4.7,-2 6.5,-3.3 6.1,-4.2 -0.3,-0.8 -0.5,-1.7 -0.5,-1.9 0,-0.2 -1.9,-0.4 -4.2,-0.4 -3.4,0.1 -3.9,0.3 -2.5,1.1 0.9,0.5 2.1,0.8 2.5,0.5 0.4,-0.2 1.3,-0.1 2,0.3 1.7,1 -8.2,5.6 -10.4,4.7 -1.3,-0.5 -1.5,-1.4 -1.1,-4.1 0.6,-3.9 0.6,-4 -1.1,-2.3 z"
     id="path16"
     style="fill:#000000;stroke:#000000;stroke-width:0.375;stroke-miterlimit:4;stroke-dasharray:none;stroke-opacity:1" />
  <path
     d="m 63.2,128.1 c 0.2,1.6 1.9,2.9 6.2,4.7 6,2.6 8.4,2.4 9.4,-0.9 0.4,-1.1 0.2,-1.2 -0.9,-0.2 -0.7,0.7 -2.1,1.3 -3.1,1.3 -2.5,0 -9.8,-3.8 -9.8,-5.1 0,-0.6 0.4,-0.7 1,-0.4 0.5,0.3 1.8,0.1 2.7,-0.4 1.5,-0.8 1.1,-1 -2,-1.1 -3.4,0 -3.8,0.3 -3.5,2.1 z"
     id="path18"
     style="fill:#000000;stroke:#000000;stroke-width:0.375;stroke-miterlimit:4;stroke-dasharray:none;stroke-opacity:1" />
  <path
     d="m 25.4,128.5 c -0.3,0.8 -0.3,1.9 0,2.4 1,1.6 3.6,0.1 3.6,-2 0,-2.2 -2.8,-2.6 -3.6,-0.4 z"
     id="path20"
     style="fill:#000000;stroke:#000000;stroke-width:0.375;stroke-miterlimit:4;stroke-dasharray:none;stroke-opacity:1" />
  <path
     d="m 72.6,128.7 c -0.8,1.9 0.8,3.8 2.3,2.9 1.6,-1 1.3,-4.6 -0.3,-4.6 -0.8,0 -1.7,0.8 -2,1.7 z"
     id="path22"
     style="fill:#000000;stroke:#000000;stroke-width:0.375;stroke-miterlimit:4;stroke-dasharray:none;stroke-opacity:1" />
  <path
     d="m 44.7,131.6 c -3.1,3.6 -4.9,9 -3.4,10.3 1.6,1.2 17.5,1.7 18.7,0.5 0.5,-0.5 -3,-0.8 -8.5,-0.6 -10.6,0.4 -11,0.1 -7.9,-6.4 1.9,-3.9 2.5,-4.4 6.8,-5.5 l 3.1,-0.7 -3.3,-0.1 c -2.3,-0.1 -3.9,0.6 -5.5,2.5 z"
     id="path24"
     style="fill:#000000;stroke:#000000;stroke-width:0.375;stroke-miterlimit:4;stroke-dasharray:none;stroke-opacity:1" />
  <path
     d="m 31.4,134.9 c -5.3,3.1 -8.1,7.4 -7,10.8 1.6,4.9 12.6,12.2 15.6,10.3 1.1,-0.7 1.1,-1.4 0.3,-3.2 -1.2,-2.3 -1.2,-2.3 -1.2,-0.1 -0.1,2 -0.4,2.1 -2.9,1.2 -5.2,-1.8 -10.2,-6.7 -10.2,-10 0,-3.4 3.6,-7.3 8.9,-9.5 4.3,-1.8 4.1,-1.9 4.1,1.3 0.1,2.5 0.2,2.6 1.1,1 0.8,-1.3 0.7,-2.2 -0.1,-3.3 -1.7,-2 -2.8,-1.8 -8.6,1.5 z"
     id="path26"
     style="fill:#000000;stroke:#000000;stroke-width:0.375;stroke-miterlimit:4;stroke-dasharray:none;stroke-opacity:1" />
  <path
     d="m 48.1,135.5 c -2.3,3.9 -2.1,4.2 3.2,4.3 2.7,0.1 3.7,-0.2 3.4,-1.1 -1.7,-3.9 -3.3,-6.7 -3.9,-6.7 -0.3,0 -1.5,1.6 -2.7,3.5 z"
     id="path28"
     style="fill:#000000;stroke:#000000;stroke-width:0.375;stroke-miterlimit:4;stroke-dasharray:none;stroke-opacity:1" />
  <path
     d="m 60.5,133 c -0.3,0.5 -0.1,1.9 0.6,3.1 1.4,2.6 1.4,11.6 -0.1,15.3 -1.2,3.3 -0.6,4.6 2.1,4.6 4.7,0 14,-7 13.9,-10.4 0,-0.6 -1,0.2 -2.1,1.7 -2.2,2.9 -8.7,6.7 -11.4,6.7 -1.2,0 -1.4,-0.6 -0.8,-2.8 0.9,-3 1,-11.4 0.3,-15.2 -0.4,-2.1 -0.1,-2.4 1.5,-2.2 1.6,0.2 1.7,0.1 0.5,-0.7 -1.9,-1.3 -3.7,-1.4 -4.5,-0.1 z"
     id="path30"
     style="fill:#000000;stroke:#000000;stroke-width:0.375;stroke-miterlimit:4;stroke-dasharray:none;stroke-opacity:1" />
  <path
     d="m 17.5,143.5 c 0.6,6.3 3.1,11.8 6.7,15.3 1.8,1.6 2.5,1.8 2.5,0.8 0,-0.8 -0.4,-1.3 -0.8,-1 -0.9,0.5 -4.4,-4.3 -5.8,-7.9 -0.6,-1.4 -1.1,-4.7 -1.2,-7.2 -0.2,-2.5 -0.7,-4.9 -1.1,-5.1 -0.5,-0.3 -0.6,2 -0.3,5.1 z"
     id="path32"
     style="fill:#000000;stroke:#000000;stroke-width:0.75;stroke-miterlimit:4;stroke-dasharray:none;stroke-opacity:1" />
  <path
     d="m 30.3,141.7 c -1.8,0.9 -3.3,1.9 -3.3,2.3 0,0.6 6.4,4 7.5,4 0.3,0 0.5,-1.8 0.5,-4 0,-4.5 -0.2,-4.5 -4.7,-2.3 z"
     id="path34"
     style="fill:#000000;stroke:#000000;stroke-width:0.375;stroke-miterlimit:4;stroke-dasharray:none;stroke-opacity:1" />
  <path
     d="m 66,144 c 0,2.2 0.2,4 0.5,4 1.1,0 7.5,-3.4 7.5,-4 0,-0.6 -6.4,-4 -7.5,-4 -0.3,0 -0.5,1.8 -0.5,4 z"
     id="path36"
     style="fill:#000000;stroke:#000000;stroke-width:0.375;stroke-miterlimit:4;stroke-dasharray:none;stroke-opacity:1" />
  <path
     d="m 41.3,146.2 c -2.5,3.1 4.6,13.8 9.1,13.8 3,0 6.3,-2.5 8.2,-6.3 l 1.7,-3.1 -3.5,3.7 c -4.4,4.7 -7.7,4.8 -11.2,0.6 -2.8,-3.3 -4.2,-7.2 -3.1,-8.8 0.9,-1.5 0,-1.4 -1.2,0.1 z"
     id="path38"
     style="fill:#000000;stroke:#000000;stroke-width:0.375;stroke-miterlimit:4;stroke-dasharray:none;stroke-opacity:1" />
  <path
     d="m 46.7,148.6 c -0.6,0.6 3.1,7.4 4.1,7.4 0.6,0 2.2,-2.8 3.9,-6.8 0.4,-0.8 -0.7,-1.2 -3.4,-1.2 -2.2,0 -4.2,0.3 -4.6,0.6 z"
     id="path40"
     style="fill:#000000;stroke:#000000;stroke-width:0.375;stroke-miterlimit:4;stroke-dasharray:none;stroke-opacity:1" />
  <path
     style="fill:none;stroke:#000000;stroke-width:8.48672;stroke-linecap:round;stroke-linejoin:miter;stroke-miterlimit:4;stroke-dasharray:none;stroke-opacity:1"
     d="M 23.244632,5.9006093 82.317237,6.5814721"
     id="path1399" />
</svg>
