<?xml version="1.0" encoding="UTF-8"?> <svg xmlns="http://www.w3.org/2000/svg" id="Layer_1" data-name="Layer 1" viewBox="0 0 435.33 68.96"><defs><style>.cls-1{fill:#d34844;}.cls-2{fill:#fff;}.cls-3{fill:#59585f;}</style></defs><path class="cls-1" d="M417,17.27a34.48,34.48,0,1,0,34.48,34.48A34.52,34.52,0,0,0,417,17.27" transform="translate(-16.16 -17.27)"></path><path class="cls-2" d="M393.36,37.73A17.38,17.38,0,1,1,410.73,55.1a17.4,17.4,0,0,1-17.37-17.37" transform="translate(-16.16 -17.27)"></path><path class="cls-3" d="M44.28,19.65H54.42v7.69H44.28ZM28.51,53.4a31.38,31.38,0,0,0,.6,6.7,9.66,9.66,0,0,0,2.05,4.33A7.94,7.94,0,0,0,35,66.79a22.17,22.17,0,0,0,6.11.71,22.15,22.15,0,0,0,6.1-.71,7.89,7.89,0,0,0,3.86-2.36,9.56,9.56,0,0,0,2-4.33,31.3,31.3,0,0,0,.61-6.7,31.27,31.27,0,0,0-.61-6.69,9.56,9.56,0,0,0-2-4.33A7.89,7.89,0,0,0,47.23,40a21.77,21.77,0,0,0-6.1-.71A21.8,21.8,0,0,0,35,40a7.94,7.94,0,0,0-3.86,2.36,9.66,9.66,0,0,0-2.05,4.33,31.34,31.34,0,0,0-.6,6.69m-.67-33.75H38v7.69H27.84Zm13.29,10.6a60.3,60.3,0,0,1,11.68,1,16.57,16.57,0,0,1,7.72,3.56,14.71,14.71,0,0,1,4.26,7.08A42.37,42.37,0,0,1,66.1,53.4,42.57,42.57,0,0,1,64.79,65a14.43,14.43,0,0,1-4.26,7,16.63,16.63,0,0,1-7.72,3.52,59.52,59.52,0,0,1-11.68,1,59.38,59.38,0,0,1-11.68-1,16.58,16.58,0,0,1-7.72-3.52,14.37,14.37,0,0,1-4.27-7,42.62,42.62,0,0,1-1.3-11.61,42.42,42.42,0,0,1,1.3-11.54,14.65,14.65,0,0,1,4.27-7.08,16.52,16.52,0,0,1,7.72-3.56,60.16,60.16,0,0,1,11.68-1" transform="translate(-16.16 -17.27)"></path><path class="cls-3" d="M72.34,67h26a4.36,4.36,0,0,0,1.88-.32,2.45,2.45,0,0,0,1-.81,2.27,2.27,0,0,0,.4-1,7.05,7.05,0,0,0,.07-.94,3.3,3.3,0,0,0-.74-2.1,5.77,5.77,0,0,0-2.89-1.59l-18.39-5.3q-4.56-1.29-6.24-4.59a17.66,17.66,0,0,1-1.68-8.08,16.79,16.79,0,0,1,.61-4.66,9.17,9.17,0,0,1,1.91-3.62,8.88,8.88,0,0,1,3.35-2.33,13.25,13.25,0,0,1,5-.84h29v9.06H87.37a4.24,4.24,0,0,0-2.31.61,2.58,2.58,0,0,0-1,2.36,3.28,3.28,0,0,0,.8,2.23,6.31,6.31,0,0,0,3,1.59l16.52,4.65A20,20,0,0,1,108.82,53a9.4,9.4,0,0,1,4.73,6.14,21.73,21.73,0,0,1,0,9.76,10.19,10.19,0,0,1-1.81,3.79,8.21,8.21,0,0,1-3.29,2.45,12.83,12.83,0,0,1-5.07.88h-31Z" transform="translate(-16.16 -17.27)"></path><polygon class="cls-3" points="120.07 58.77 120.07 22.56 102.62 22.56 102.62 13.51 149.6 13.51 149.6 22.56 132.15 22.56 132.15 58.77 120.07 58.77"></polygon><path class="cls-3" d="M183.32,64A3.65,3.65,0,0,0,184,66.6a4,4,0,0,0,2.69.64h11.21a5.79,5.79,0,0,0,4-1.1q1.2-1.1,1.2-3.81c0-1.81-.39-3.08-1.17-3.82a5.35,5.35,0,0,0-3.73-1.1H183.32Zm0-15h14.5a5,5,0,0,0,3.56-1c.71-.69,1.07-1.94,1.07-3.75a5,5,0,0,0-1.07-3.55,4.93,4.93,0,0,0-3.63-1.1H186.34a3.44,3.44,0,0,0-2.38.61,3.16,3.16,0,0,0-.64,2.3Zm24.37,4.07a10.84,10.84,0,0,1,3.75,1.16,6.83,6.83,0,0,1,2.35,2.17A8.83,8.83,0,0,1,215,59.52a20,20,0,0,1,.36,4,24.18,24.18,0,0,1-.5,5.21,9.47,9.47,0,0,1-1.81,3.94,8.12,8.12,0,0,1-3.63,2.52,16.61,16.61,0,0,1-5.87.88H178.35a7.8,7.8,0,0,1-5.2-1.62c-1.28-1.08-1.91-2.84-1.91-5.3V37.76c0-2.46.63-4.24,1.91-5.34a7.71,7.71,0,0,1,5.2-1.65h24.57c4.07,0,7,1,8.86,3s2.75,5.2,2.75,9.51a16.79,16.79,0,0,1-.33,3.36,8.77,8.77,0,0,1-1.14,2.88,7,7,0,0,1-2.12,2.1,8.49,8.49,0,0,1-3.25,1.16Z" transform="translate(-16.16 -17.27)"></path><path class="cls-3" d="M263,39.57H238.8a3.47,3.47,0,0,0-2.45.68,3.2,3.2,0,0,0-.7,2.36v6.27h26.71v8.4H235.65V64.2a3.2,3.2,0,0,0,.7,2.36,3.47,3.47,0,0,0,2.45.68h24.44V76H230.68a7.78,7.78,0,0,1-5.2-1.62c-1.28-1.08-1.91-2.85-1.91-5.3V37.76c0-2.46.63-4.24,1.91-5.34a7.69,7.69,0,0,1,5.2-1.65H263Z" transform="translate(-16.16 -17.27)"></path><path class="cls-3" d="M302.85,51.11q-1.07,1.65-4.43,1.65H283.59V42.86a3.22,3.22,0,0,1,.7-2.36,3.52,3.52,0,0,1,2.45-.68H298c2.28,0,3.85.46,4.7,1.36s1.28,2.52,1.28,4.85a9.43,9.43,0,0,1-1.08,5.08m4.77,10.44v-.32l.88-.23a12.64,12.64,0,0,0,2.41-1.1,9.67,9.67,0,0,0,3.29-3.49,14.83,14.83,0,0,0,1.64-5,37.73,37.73,0,0,0,.44-5.79,29.24,29.24,0,0,0-.61-6.27,11.89,11.89,0,0,0-2-4.69,9.17,9.17,0,0,0-3.86-2.91,16.05,16.05,0,0,0-6-1H278.62a7.69,7.69,0,0,0-5.2,1.65q-1.92,1.65-1.92,5.34V76h12.09V61.1h7.54a8.13,8.13,0,0,1,4.3,1.34,16.7,16.7,0,0,1,1.4,1.49c.5.49-.13-.14.32.34L307.75,76h14.84Z" transform="translate(-16.16 -17.27)"></path><path class="cls-3" d="M349,50.4v8.36h7.46v5.18a3.18,3.18,0,0,1-.71,2.36,3.45,3.45,0,0,1-2.45.68h-5.1a24.26,24.26,0,0,1-5.94-.61,7.71,7.71,0,0,1-3.83-2.17A9.21,9.21,0,0,1,336.35,60a29,29,0,0,1-.63-6.63,28.92,28.92,0,0,1,.63-6.62,9.21,9.21,0,0,1,2.08-4.17,7.71,7.71,0,0,1,3.83-2.17,24.21,24.21,0,0,1,5.94-.62h19.26v-9H343.57a26.74,26.74,0,0,0-9.8,1.55,14.7,14.7,0,0,0-6.21,4.47,17.4,17.4,0,0,0-3.26,7.11,44.11,44.11,0,0,0-.94,9.5A44.45,44.45,0,0,0,324.3,63a17.38,17.38,0,0,0,3.26,7.12,14.46,14.46,0,0,0,6.21,4.43,27.22,27.22,0,0,0,9.8,1.52h17.85a7.81,7.81,0,0,0,5.21-1.62q1.9-1.62,1.91-5.3V50.4Z" transform="translate(-16.16 -17.27)"></path></svg> 