<svg width='24' height='24' viewBox='0 0 24 24' xmlns='http://www.w3.org/2000/svg'><rect width='24' height='24' stroke='none' fill='#000000' opacity='0'/>


    <g transform="matrix(0.83 0 0 0.83 12 12)" >
        <path style="stroke: none; stroke-width: 1; stroke-dasharray: none; stroke-linecap: butt; stroke-dashoffset: 0; stroke-linejoin: miter; stroke-miterlimit: 4; fill: rgb(0,0,0); fill-rule: nonzero; opacity: 1;" transform=" translate(-12, -12)" d="M 12 4 C 9.539 4 7.3640469 5.1943906 5.9980469 7.0253906 C 2.6430469 7.2823906 5.9211895e-16 10.079 0 13.5 C 0 17.09 2.91 20 6.5 20 L 18.5 20 C 21.538 20 24 17.538 24 14.5 C 24 11.656 21.841219 9.3172969 19.074219 9.0292969 C 18.052219 6.1022969 15.276 4 12 4 z M 12 6 C 14.332 6 16.415547 7.4834531 17.185547 9.6894531 L 17.603516 10.888672 L 18.867188 11.019531 C 20.654188 11.205531 22 12.701 22 14.5 C 22 16.43 20.43 18 18.5 18 L 6.5 18 C 4.019 18 2 15.981 2 13.5 C 2 11.165 3.8243438 9.1975312 6.1523438 9.0195312 L 7.0585938 8.9492188 L 7.6035156 8.2207031 C 8.6555156 6.8097031 10.258 6 12 6 z M 6.8691406 9.9941406 C 6.2951406 9.9941406 5.7895156 10.131297 5.3535156 10.404297 C 4.9165156 10.677297 4.5816094 11.064453 4.3496094 11.564453 C 4.1166094 12.064453 4 12.649406 4 13.316406 L 4 13.654297 C 4 14.718297 4.2564844 15.541 4.7714844 16.125 C 5.2864844 16.708 5.9917187 17 6.8867188 17 C 7.4297187 17 7.9139375 16.900219 8.3359375 16.699219 C 8.7589375 16.500219 9.0863125 16.218469 9.3203125 15.855469 C 9.5543125 15.492469 9.681125 15.073609 9.703125 14.599609 L 8.0703125 14.599609 C 8.0583125 14.986609 7.9529062 15.267312 7.7539062 15.445312 C 7.5539063 15.623313 7.2647188 15.712891 6.8867188 15.712891 C 6.4407188 15.712891 6.1263594 15.556141 5.9433594 15.244141 C 5.7613594 14.932141 5.671875 14.4145 5.671875 13.6875 L 5.671875 13.205078 C 5.680875 12.535078 5.7807031 12.046234 5.9707031 11.740234 C 6.1607031 11.434234 6.4601406 11.28125 6.8691406 11.28125 C 7.2711406 11.28125 7.5715781 11.371734 7.7675781 11.552734 C 7.9645781 11.733734 8.0680781 12.032266 8.0800781 12.447266 L 9.71875 12.447266 C 9.65075 11.683266 9.3652813 11.083438 8.8632812 10.648438 C 8.3602812 10.213438 7.6961406 9.9941406 6.8691406 9.9941406 z M 13.269531 10 C 12.685531 10 12.165984 10.138016 11.708984 10.416016 C 11.252984 10.693016 10.90125 11.087656 10.65625 11.597656 C 10.41125 12.108656 10.289062 12.696281 10.289062 13.363281 L 10.289062 13.748047 C 10.300062 14.391047 10.433547 14.959078 10.685547 15.455078 C 10.935547 15.951078 11.285375 16.332609 11.734375 16.599609 C 12.183375 16.866609 12.698297 17 13.279297 17 C 13.859297 17 14.377078 16.862937 14.830078 16.585938 C 15.284078 16.309937 15.633859 15.916297 15.880859 15.404297 C 16.126859 14.893297 16.25 14.304625 16.25 13.640625 L 16.25 13.326172 C 16.247 12.671172 16.120141 12.089031 15.869141 11.582031 C 15.617141 11.075031 15.266453 10.685156 14.814453 10.410156 C 14.361453 10.136156 13.846531 10 13.269531 10 z M 13.269531 11.287109 C 13.689531 11.287109 14.014234 11.4615 14.240234 11.8125 C 14.466234 12.1635 14.580078 12.678469 14.580078 13.355469 L 14.580078 13.669922 C 14.577078 14.330922 14.463281 14.837453 14.238281 15.189453 C 14.013281 15.542453 13.693297 15.71875 13.279297 15.71875 C 12.842297 15.71875 12.514969 15.540641 12.292969 15.181641 C 12.070969 14.822641 11.960938 14.307625 11.960938 13.640625 L 11.964844 13.140625 C 12.011844 11.904625 12.445531 11.287109 13.269531 11.287109 z M 18.359375 13 C 17.95824 13.000901 17.632049 13.135248 17.378906 13.402344 C 17.126906 13.670344 17 14.000578 17 14.392578 L 18 14.392578 C 18 14.249578 18.037328 14.127344 18.111328 14.027344 C 18.186328 13.928344 18.286062 13.878906 18.414062 13.878906 C 18.687062 13.878906 18.824219 14.035109 18.824219 14.287109 C 18.824219 14.572109 18.507656 14.852047 18.347656 14.998047 L 17 16.261719 L 17 17 L 20 17 L 20 16 L 18.544922 16 L 18.796875 15.78125 C 19.264875 15.42925 19.566125 15.149406 19.703125 14.941406 C 19.840125 14.734406 19.908203 14.506813 19.908203 14.257812 C 19.908203 13.852813 19.775813 13.540219 19.507812 13.324219 C 19.240593 13.107851 18.858165 13.000628 18.363281 13 L 18.361328 13 L 18.359375 13 z" stroke-linecap="round" />
    </g>
</svg>
