<?xml version="1.0" encoding="UTF-8" standalone="no"?>
<svg
   viewBox="0 0 24 24"
   version="1.1"
   id="svg4"
   sodipodi:docname="template (copy 1).svg"
   inkscape:version="1.1.2 (0a00cf5339, 2022-02-04)"
   xmlns:inkscape="http://www.inkscape.org/namespaces/inkscape"
   xmlns:sodipodi="http://sodipodi.sourceforge.net/DTD/sodipodi-0.dtd"
   xmlns="http://www.w3.org/2000/svg"
   xmlns:svg="http://www.w3.org/2000/svg">
  <defs
     id="defs8" />
  <sodipodi:namedview
     id="namedview6"
     pagecolor="#ffffff"
     bordercolor="#666666"
     borderopacity="1.0"
     inkscape:pageshadow="2"
     inkscape:pageopacity="0.0"
     inkscape:pagecheckerboard="0"
     showgrid="false"
     inkscape:zoom="28.416667"
     inkscape:cx="14.252199"
     inkscape:cy="13.495601"
     inkscape:window-width="1920"
     inkscape:window-height="1029"
     inkscape:window-x="0"
     inkscape:window-y="25"
     inkscape:window-maximized="1"
     inkscape:current-layer="svg4" />
  <path
     id="path823"
     style="stroke-width:1.21752"
     d="M 12 1.5 L 2.6640625 10.146484 L 6.2519531 10.146484 L 12 4.8222656 L 15.408203 7.9804688 L 18 10.380859 L 18 13.451172 L 18 20.029297 L 6 20.029297 L 6 17.558594 L 3.5996094 17.558594 L 3.5996094 22.5 L 20.400391 22.5 L 20.400391 13.451172 L 20.400391 12.617188 L 24 12.617188 L 15.408203 4.6582031 L 12 1.5 z " />
  <path
     id="path823-5"
     style="stroke-width:1.21752"
     d="M 8.5917969 4.6582031 L 0 12.617188 L 3.5996094 12.617188 L 3.5996094 13.451172 L 3.5996094 22.5 L 20.400391 22.5 L 20.400391 17.558594 L 18 17.558594 L 18 20.029297 L 6 20.029297 L 6 13.451172 L 6 10.380859 L 8.5917969 7.9804688 L 8.5917969 4.6582031 z " />
  <path
     id="path830"
     style="stroke-width:0.827876"
     d="m 12,7.3587599 c -0.916766,0 -1.66712,0.7407913 -1.66712,1.6453853 V 14.563361 C 9.8244928,15.015658 9.5,15.672667 9.5,16.404565 c 0,1.365115 1.116516,2.468077 2.5,2.468077 1.383483,0 2.5,-1.102962 2.5,-2.468077 0,-0.731898 -0.324493,-1.388907 -0.832882,-1.841204 V 9.0041452 C 13.667119,8.0995512 12.9251,7.3587599 12,7.3587599 Z m 0,0.8226926 c 0.458382,0 0.832881,0.3703957 0.832881,0.8226927 V 9.8268378 H 11.167118 V 9.0041452 c 0,-0.452297 0.374499,-0.8226927 0.832882,-0.8226927 z" />
</svg>
