<?xml version="1.0" encoding="UTF-8" standalone="no"?>
<svg
   viewBox="0 0 24 24"
   version="1.1"
   id="svg4"
   sodipodi:docname="supply-air.svg"
   inkscape:version="1.1.2 (0a00cf5339, 2022-02-04)"
   xmlns:inkscape="http://www.inkscape.org/namespaces/inkscape"
   xmlns:sodipodi="http://sodipodi.sourceforge.net/DTD/sodipodi-0.dtd"
   xmlns="http://www.w3.org/2000/svg"
   xmlns:svg="http://www.w3.org/2000/svg">
  <defs
     id="defs8" />
  <sodipodi:namedview
     id="namedview6"
     pagecolor="#ffffff"
     bordercolor="#666666"
     borderopacity="1.0"
     inkscape:pageshadow="2"
     inkscape:pageopacity="0.0"
     inkscape:pagecheckerboard="0"
     showgrid="false"
     inkscape:zoom="28.416667"
     inkscape:cx="22.944281"
     inkscape:cy="11.489736"
     inkscape:window-width="1920"
     inkscape:window-height="1029"
     inkscape:window-x="0"
     inkscape:window-y="25"
     inkscape:window-maximized="1"
     inkscape:current-layer="svg4" />
  <path
     id="path823"
     style="stroke-width:1.21752"
     d="M 12 1.5 L 2.6640625 10.146484 L 6.2519531 10.146484 L 12 4.8222656 L 15.408203 7.9804688 L 18 10.380859 L 18 13.451172 L 18 20.029297 L 6 20.029297 L 6 17.558594 L 3.5996094 17.558594 L 3.5996094 22.5 L 20.400391 22.5 L 20.400391 13.451172 L 20.400391 12.617188 L 24 12.617188 L 15.408203 4.6582031 L 12 1.5 z " />
  <path
     id="path823-5"
     style="stroke-width:1.21752"
     d="M 8.5917969 4.6582031 L 0 12.617188 L 3.5996094 12.617188 L 3.5996094 13.451172 L 3.5996094 22.5 L 20.400391 22.5 L 20.400391 17.558594 L 18 17.558594 L 18 20.029297 L 6 20.029297 L 6 13.451172 L 6 10.380859 L 8.5917969 7.9804688 L 8.5917969 4.6582031 z " />
  <path
     style="stroke-width:1.21752"
     d="m -5.4679683,19.742709 -4.9411767,-4.8 h 3.7058827 v -10.8 h 2.470588 v 10.8 h 3.70588275 l -4.94117675,4.8"
     id="path2" />
  <path
     style="stroke-width:0.852775"
     d="M 12.094717,18.818747 8.6338238,15.456739 H 11.229494 V 7.8922126 h 1.730445 v 7.5645264 h 2.59567 l -3.460892,3.362008"
     id="path2-4" />
</svg>
