<?xml version="1.0" encoding="UTF-8" standalone="no"?>
<!-- Created with Inkscape (http://www.inkscape.org/) -->

<svg
   width="625"
   height="587"
   viewBox="0 0 165.36487 155.31047"
   version="1.1"
   id="svg5"
   inkscape:version="1.1.2 (0a00cf5339, 2022-02-04)"
   sodipodi:docname="icon.svg"
   xmlns:inkscape="http://www.inkscape.org/namespaces/inkscape"
   xmlns:sodipodi="http://sodipodi.sourceforge.net/DTD/sodipodi-0.dtd"
   xmlns="http://www.w3.org/2000/svg"
   xmlns:svg="http://www.w3.org/2000/svg">
  <sodipodi:namedview
     id="namedview7"
     pagecolor="#ffffff"
     bordercolor="#666666"
     borderopacity="1.0"
     inkscape:pageshadow="2"
     inkscape:pageopacity="0.0"
     inkscape:pagecheckerboard="0"
     inkscape:document-units="mm"
     showgrid="false"
     units="px"
     width="800px"
     inkscape:zoom="0.56413265"
     inkscape:cx="21.271593"
     inkscape:cy="194.10328"
     inkscape:window-width="1920"
     inkscape:window-height="1029"
     inkscape:window-x="0"
     inkscape:window-y="25"
     inkscape:window-maximized="1"
     inkscape:current-layer="layer1" />
  <defs
     id="defs2" />
  <g
     inkscape:label="Layer 1"
     inkscape:groupmode="layer"
     id="layer1">
    <rect
       style="fill:none;stroke:#010000;stroke-width:3.95783;stroke-linecap:round;stroke-miterlimit:4;stroke-dasharray:none;stroke-opacity:1"
       id="rect1134"
       width="147.4619"
       height="143.6754"
       x="16.04953"
       y="9.557559" />
    <path
       style="fill:none;stroke:#010000;stroke-width:3.98542;stroke-linecap:butt;stroke-linejoin:miter;stroke-miterlimit:4;stroke-dasharray:none;stroke-opacity:1"
       d="M 2.1909306,2.0051694 H 151.95459"
       id="path1481" />
    <path
       style="fill:none;stroke:#010000;stroke-width:4.04537;stroke-linecap:butt;stroke-linejoin:miter;stroke-miterlimit:4;stroke-dasharray:none;stroke-opacity:1"
       d="M 164.22205,9.5195878 150.87532,1.8138519"
       id="path1676" />
    <path
       style="fill:none;stroke:#010000;stroke-width:3.96875688;stroke-linecap:butt;stroke-linejoin:miter;stroke-miterlimit:4;stroke-dasharray:none;stroke-opacity:1"
       d="M 15.72675,9.5227025 2.6827636,1.9917514"
       id="path1676-3" />
    <path
       style="fill:none;stroke:#010000;stroke-width:4.12839;stroke-linecap:butt;stroke-linejoin:miter;stroke-miterlimit:4;stroke-dasharray:none;stroke-opacity:1"
       d="M 15.361281,153.3821 1.6212384,145.44928"
       id="path1676-3-6" />
    <circle
       style="fill:none;stroke:#010000;stroke-width:3.96875688;stroke-linecap:round;stroke-miterlimit:4;stroke-dasharray:none;stroke-opacity:1;fill-opacity:1"
       id="path2045"
       cx="90.076767"
       cy="18.463634"
       r="1.0214875" />
    <circle
       style="fill:none;stroke:#010000;stroke-width:3.96875688;stroke-linecap:round;stroke-miterlimit:4;stroke-dasharray:none;stroke-opacity:1"
       id="path2045-3"
       cx="90.076767"
       cy="146.30664"
       r="1.0214875" />
    <path
       class="cls-1"
       d="m 158.92,146.82969 a 2.1650587,2.1650587 0 1 0 2.16506,2.16506 2.1675704,2.1675704 0 0 0 -2.16506,-2.16506"
       id="path2423"
       style="fill:#d34844;stroke:#010000;stroke-width:0.264584;stroke-miterlimit:4;stroke-dasharray:none;stroke-opacity:1" />
    <path
       class="cls-2"
       d="m 157.43561,148.11441 a 1.0913202,1.0913202 0 1 1 1.09069,1.09069 1.092576,1.092576 0 0 1 -1.09069,-1.09069"
       id="path2425"
       style="fill:#ffffff;stroke:#010000;stroke-width:0.264584;stroke-miterlimit:4;stroke-dasharray:none;stroke-opacity:1" />
    <path
       class="cls-3"
       d="m 135.51627,146.97913 h 0.63671 v 0.48287 h -0.63671 z m -0.99023,2.11923 a 1.9704043,1.9704043 0 0 0 0.0377,0.4207 0.60656807,0.60656807 0 0 0 0.12873,0.27189 0.49856629,0.49856629 0 0 0 0.24112,0.14819 1.3920925,1.3920925 0 0 0 0.38366,0.0446 1.3908367,1.3908367 0 0 0 0.38303,-0.0446 0.49542672,0.49542672 0 0 0 0.24237,-0.14819 0.60028888,0.60028888 0 0 0 0.12558,-0.27189 1.965381,1.965381 0 0 0 0.0383,-0.4207 1.9634972,1.9634972 0 0 0 -0.0383,-0.42008 0.60028888,0.60028888 0 0 0 -0.12558,-0.27189 0.49542672,0.49542672 0 0 0 -0.24112,-0.14944 1.3669759,1.3669759 0 0 0 -0.38303,-0.0446 1.3688596,1.3688596 0 0 0 -0.38491,0.0446 0.49856629,0.49856629 0 0 0 -0.24238,0.14819 0.60656807,0.60656807 0 0 0 -0.12872,0.27188 1.9678927,1.9678927 0 0 0 -0.0377,0.42008 m -0.0421,-2.11922 h 0.63922 v 0.48287 h -0.63796 z m 0.8345,0.66559 a 3.7863411,3.7863411 0 0 1 0.73341,0.0628 1.0404589,1.0404589 0 0 1 0.48475,0.22354 0.92366628,0.92366628 0 0 1 0.26749,0.44457 2.6604855,2.6604855 0 0 1 0.0835,0.72399 2.6730437,2.6730437 0 0 1 -0.0823,0.72838 0.9060846,0.9060846 0 0 1 -0.26749,0.43954 1.0442264,1.0442264 0 0 1 -0.48475,0.22103 3.7373635,3.7373635 0 0 1 -0.73341,0.0628 3.7285726,3.7285726 0 0 1 -0.73341,-0.0628 1.0410868,1.0410868 0 0 1 -0.48475,-0.22103 0.9023171,0.9023171 0 0 1 -0.26812,-0.43954 2.6761834,2.6761834 0 0 1 -0.0816,-0.72901 2.663625,2.663625 0 0 1 0.0816,-0.72462 0.91989878,0.91989878 0 0 1 0.26812,-0.44456 1.0373193,1.0373193 0 0 1 0.48475,-0.22354 3.7775501,3.7775501 0 0 1 0.73341,-0.0628"
       id="path2427"
       style="fill:#59585f;stroke:#010000;stroke-width:0.264584;stroke-miterlimit:4;stroke-dasharray:none;stroke-opacity:1" />
    <path
       class="cls-3"
       d="m 137.27821,149.95232 h 1.63258 a 0.27377192,0.27377192 0 0 0 0.11805,-0.0201 0.15383973,0.15383973 0 0 0 0.0628,-0.0509 0.14253722,0.14253722 0 0 0 0.0251,-0.0628 0.44268167,0.44268167 0 0 0 0.004,-0.059 0.20721269,0.20721269 0 0 0 -0.0465,-0.13186 0.36230825,0.36230825 0 0 0 -0.18147,-0.0998 l -1.15474,-0.33279 q -0.28633,-0.081 -0.39182,-0.28822 a 1.1089019,1.1089019 0 0 1 -0.10549,-0.50735 1.0542731,1.0542731 0 0 1 0.0383,-0.29261 0.57580011,0.57580011 0 0 1 0.11993,-0.22731 0.55759053,0.55759053 0 0 1 0.21036,-0.14631 0.83199035,0.83199035 0 0 1 0.31395,-0.0527 h 1.82096 v 0.56889 h -1.5227 a 0.26623691,0.26623691 0 0 0 -0.14504,0.0383 0.16200265,0.16200265 0 0 0 -0.0628,0.14818 0.20595686,0.20595686 0 0 0 0.0502,0.14003 0.39621578,0.39621578 0 0 0 0.18837,0.0998 l 1.03732,0.29198 a 1.2558345,1.2558345 0 0 1 0.2788,0.10549 0.59024222,0.59024222 0 0 1 0.297,0.38554 1.3644642,1.3644642 0 0 1 0,0.61285 0.63984767,0.63984767 0 0 1 -0.11365,0.23798 0.51552005,0.51552005 0 0 1 -0.20659,0.15384 0.80561783,0.80561783 0 0 1 -0.31835,0.0553 h -1.94655 z"
       id="path2429"
       style="fill:#59585f;stroke:#010000;stroke-width:0.264584;stroke-miterlimit:4;stroke-dasharray:none;stroke-opacity:1" />
    <polygon
       class="cls-3"
       points="132.15,22.56 132.15,58.77 120.07,58.77 120.07,22.56 102.62,22.56 102.62,13.51 149.6,13.51 149.6,22.56 "
       id="polygon2431"
       style="fill:#59585f;stroke:#010000;stroke-width:4.21367;stroke-miterlimit:4;stroke-dasharray:none;stroke-opacity:1"
       transform="matrix(0.06279173,0,0,0.06279173,133.75057,146.82969)" />
    <path
       class="cls-3"
       d="m 144.24683,149.76395 a 0.2291898,0.2291898 0 0 0 0.0427,0.16326 0.2511669,0.2511669 0 0 0 0.16891,0.0402 h 0.7039 a 0.36356409,0.36356409 0 0 0 0.25116,-0.0691 q 0.0753,-0.0691 0.0753,-0.23923 c 0,-0.11366 -0.0245,-0.1934 -0.0735,-0.23987 a 0.33593573,0.33593573 0 0 0 -0.23421,-0.0691 h -0.93434 z m 0,-0.94188 h 0.91048 a 0.31395861,0.31395861 0 0 0 0.22354,-0.0628 c 0.0446,-0.0433 0.0672,-0.12181 0.0672,-0.23547 a 0.31395861,0.31395861 0 0 0 -0.0672,-0.22291 0.3095632,0.3095632 0 0 0 -0.22793,-0.0691 h -0.71646 a 0.21600354,0.21600354 0 0 0 -0.14944,0.0383 0.19842185,0.19842185 0 0 0 -0.0402,0.14442 z m 1.53024,0.25557 a 0.6806623,0.6806623 0 0 1 0.23547,0.0728 0.42886747,0.42886747 0 0 1 0.14756,0.13626 0.55445093,0.55445093 0 0 1 0.076,0.19591 1.2558345,1.2558345 0 0 1 0.0226,0.25117 1.5183039,1.5183039 0 0 1 -0.0314,0.32714 0.59463763,0.59463763 0 0 1 -0.11366,0.2474 0.5098688,0.5098688 0 0 1 -0.22793,0.15824 1.0429706,1.0429706 0 0 1 -0.36859,0.0553 h -1.58235 a 0.48977546,0.48977546 0 0 1 -0.32652,-0.10172 c -0.0804,-0.0678 -0.11993,-0.17833 -0.11993,-0.33279 v -1.97104 c 0,-0.15446 0.0396,-0.26623 0.11993,-0.3353 a 0.48412421,0.48412421 0 0 1 0.32652,-0.10361 h 1.54279 c 0.25556,0 0.43954,0.0628 0.55634,0.18837 0.11679,0.12559 0.17267,0.32652 0.17267,0.59715 a 1.0542731,1.0542731 0 0 1 -0.0207,0.21098 0.55068343,0.55068343 0 0 1 -0.0716,0.18084 0.43954207,0.43954207 0 0 1 -0.13311,0.13187 0.53310175,0.53310175 0 0 1 -0.20408,0.0728 z"
       id="path2433"
       style="fill:#59585f;stroke:#010000;stroke-width:0.264584;stroke-miterlimit:4;stroke-dasharray:none;stroke-opacity:1" />
    <path
       class="cls-3"
       d="m 149.25008,148.22995 h -1.51956 a 0.21788729,0.21788729 0 0 0 -0.15384,0.0427 0.20093352,0.20093352 0 0 0 -0.0439,0.14818 v 0.39371 h 1.67716 v 0.52745 h -1.67716 v 0.43452 a 0.20093352,0.20093352 0 0 0 0.0439,0.14819 0.21788729,0.21788729 0 0 0 0.15384,0.0427 h 1.53463 v 0.55006 h -2.0445 a 0.48851962,0.48851962 0 0 1 -0.32652,-0.10172 c -0.0804,-0.0678 -0.11993,-0.17896 -0.11993,-0.3328 v -1.96664 c 0,-0.15446 0.0396,-0.26623 0.11993,-0.3353 a 0.48286836,0.48286836 0 0 1 0.32652,-0.10361 h 2.02943 z"
       id="path2435"
       style="fill:#59585f;stroke:#010000;stroke-width:0.264584;stroke-miterlimit:4;stroke-dasharray:none;stroke-opacity:1" />
    <path
       class="cls-3"
       d="m 151.75233,148.95456 q -0.0672,0.10361 -0.27817,0.10361 h -0.9312 v -0.62164 a 0.20218935,0.20218935 0 0 1 0.044,-0.14819 0.22102687,0.22102687 0 0 1 0.15384,-0.0427 h 0.70703 c 0.14317,0 0.24175,0.0289 0.29512,0.0854 0.0534,0.0565 0.0804,0.15824 0.0804,0.30454 a 0.59212597,0.59212597 0 0 1 -0.0678,0.31898 m 0.29952,0.65555 v -0.0201 l 0.0553,-0.0145 a 0.79368741,0.79368741 0 0 0 0.15132,-0.0691 0.60719598,0.60719598 0 0 0 0.20659,-0.21914 0.93120129,0.93120129 0 0 0 0.10298,-0.31396 2.3691318,2.3691318 0 0 0 0.0276,-0.36356 1.83603,1.83603 0 0 0 -0.0383,-0.39371 0.74659361,0.74659361 0 0 0 -0.12559,-0.29449 0.57580011,0.57580011 0 0 0 -0.24237,-0.18272 1.0078072,1.0078072 0 0 0 -0.37675,-0.0628 h -1.58486 a 0.48286836,0.48286836 0 0 0 -0.32652,0.1036 q -0.12056,0.10361 -0.12056,0.33531 v 2.40241 h 0.75915 v -0.9356 h 0.47345 a 0.51049673,0.51049673 0 0 1 0.27,0.0841 1.0486218,1.0486218 0 0 1 0.0879,0.0936 c 0.0314,0.0308 -0.008,-0.009 0.0201,0.0214 l 0.6656,0.73655 h 0.93183 z"
       id="path2437"
       style="fill:#59585f;stroke:#010000;stroke-width:0.264584;stroke-miterlimit:4;stroke-dasharray:none;stroke-opacity:1" />
    <path
       class="cls-3"
       d="m 154.65016,148.90998 v 0.52494 h 0.46843 v 0.32526 a 0.19967769,0.19967769 0 0 1 -0.0446,0.14819 0.21663145,0.21663145 0 0 1 -0.15384,0.0427 h -0.32024 a 1.5233273,1.5233273 0 0 1 -0.37298,-0.0383 0.48412421,0.48412421 0 0 1 -0.24049,-0.13626 0.5783118,0.5783118 0 0 1 -0.13061,-0.26373 1.82096,1.82096 0 0 1 -0.0396,-0.41631 1.8159367,1.8159367 0 0 1 0.0396,-0.41568 0.5783118,0.5783118 0 0 1 0.13061,-0.26184 0.48412421,0.48412421 0 0 1 0.24049,-0.13626 1.5201877,1.5201877 0 0 1 0.37298,-0.0389 h 1.20937 v -0.56513 h -1.50009 a 1.6790507,1.6790507 0 0 0 -0.61536,0.0973 0.92303837,0.92303837 0 0 0 -0.38994,0.28068 1.092576,1.092576 0 0 0 -0.2047,0.44645 2.7697431,2.7697431 0 0 0 -0.059,0.59652 2.7910922,2.7910922 0 0 0 0.059,0.60155 1.0913202,1.0913202 0 0 0 0.2047,0.44707 0.90796836,0.90796836 0 0 0 0.38994,0.27817 1.7091907,1.7091907 0 0 0 0.61536,0.0954 h 1.12083 a 0.49040337,0.49040337 0 0 0 0.32714,-0.10172 q 0.11931,-0.10172 0.11994,-0.33279 v -1.17735 z"
       id="path2439"
       style="fill:#59585f;stroke:#010000;stroke-width:0.264584;stroke-miterlimit:4;stroke-dasharray:none;stroke-opacity:1" />
    <path
       style="fill:none;stroke:#000000;stroke-width:1.32291896;stroke-linecap:butt;stroke-linejoin:miter;stroke-opacity:1;stroke-miterlimit:4;stroke-dasharray:none"
       d="M 47.449174,9.6280874 V 153.58294"
       id="path2861" />
    <path
       style="fill:none;stroke:#000000;stroke-width:1.32291896;stroke-linecap:butt;stroke-linejoin:miter;stroke-opacity:1;stroke-miterlimit:4;stroke-dasharray:none"
       d="M 132.21516,9.6104674 V 153.57404"
       id="path2863" />
    <path
       style="fill:none;stroke:#000000;stroke-width:4.02291;stroke-linecap:butt;stroke-linejoin:miter;stroke-miterlimit:4;stroke-dasharray:none;stroke-opacity:1"
       d="M 2.4559092,0.02215821 2.6330153,147.23504"
       id="path1125" />
  </g>
</svg>
