<?xml version="1.0" encoding="UTF-8" standalone="no"?>
<svg
   viewBox="0 0 24 24"
   version="1.1"
   id="svg4"
   sodipodi:docname="water.svg"
   inkscape:version="1.1.2 (0a00cf5339, 2022-02-04)"
   xmlns:inkscape="http://www.inkscape.org/namespaces/inkscape"
   xmlns:sodipodi="http://sodipodi.sourceforge.net/DTD/sodipodi-0.dtd"
   xmlns="http://www.w3.org/2000/svg"
   xmlns:svg="http://www.w3.org/2000/svg">
  <defs
     id="defs8" />
  <sodipodi:namedview
     id="namedview6"
     pagecolor="#ffffff"
     bordercolor="#666666"
     borderopacity="1.0"
     inkscape:pageshadow="2"
     inkscape:pageopacity="0.0"
     inkscape:pagecheckerboard="0"
     showgrid="false"
     inkscape:zoom="28.416667"
     inkscape:cx="11.718475"
     inkscape:cy="11.982405"
     inkscape:window-width="1920"
     inkscape:window-height="1029"
     inkscape:window-x="0"
     inkscape:window-y="25"
     inkscape:window-maximized="1"
     inkscape:current-layer="svg4" />
  <path
     d="m 20.4,3.3626971 c -1.332,0 -2.4,1.1354814 -2.4,2.5516394 V 14.53888 c -0.768,0.727215 -1.2,1.773381 -1.2,2.857829 0,2.117863 1.608,3.827461 3.6,3.827461 1.992,0 3.6,-1.709598 3.6,-3.827461 0,-1.084448 -0.432,-2.130614 -1.2,-2.845079 V 5.9143365 c 0,-1.416158 -1.068,-2.5516394 -2.4,-2.5516394 m 0,1.2758212 c 0.66,0 1.2,0.5741191 1.2,1.2758182 V 7.1901577 H 19.2 V 5.9143365 c 0,-0.7016991 0.54,-1.2758182 1.2,-1.2758182 M 7.2,1.5 6.3,2.5716884 c 0,0 -1.536,1.8499402 -3.084,4.248483 C 1.668,9.2187112 0,12.089316 0,14.845079 0,19.068054 3.228,22.5 7.2,22.5 c 3.972,0 7.2,-3.431946 7.2,-7.654921 0,-2.755763 -1.668,-5.6263678 -3.216,-8.0249076 C 9.636,4.4216286 8.1,2.5716884 8.1,2.5716884 L 7.2,1.5 m 0,3.993317 c 0.528,0.6634257 1.008,1.2120282 2.016,2.768529 1.452,2.245442 2.784,5.10327 2.784,6.583233 0,2.832328 -2.136,5.103291 -4.8,5.103291 -2.664,0 -4.8,-2.270963 -4.8,-5.103291 0,-1.479963 1.332,-4.337791 2.784,-6.583233 C 6.192,6.7053452 6.672,6.1567427 7.2,5.493317 Z"
     id="path2"
     style="stroke-width:1.23733" />
</svg>
